<?xml version="1.0" encoding="UTF-8"?>
<svg id="Layer_2" data-name="Layer 2" xmlns="http://www.w3.org/2000/svg" viewBox="0 0 460 460">
  <defs>
    <style>
      .cls-1 {
        fill: none;
        stroke: #3cae49;
        stroke-linecap: round;
        stroke-linejoin: round;
        stroke-width: 32px;
      }

      .cls-2 {
        fill: #192026;
        stroke-width: 0px;
      }
    </style>
  </defs>
  <g id="Layer_1-2" data-name="Layer 1">
    <circle class="cls-2" cx="230" cy="230" r="230"/>
  </g>
  <g id="Layer_2-2" data-name="Layer 2">
    <g>
      <path class="cls-1" d="M396.04,155.03c0,25.12-20.36,45.49-45.49,45.49-.08,0-.15,0-.23,0h-90.98s0-90.97,0-90.97c0-25.12,20.36-45.49,45.49-45.49s45.49,20.36,45.49,45.49h.23c25.12,0,45.49,20.36,45.49,45.49Z"/>
      <path class="cls-1" d="M395.8,304.1c0-25.08-20.33-45.41-45.41-45.41-.08,0-.15,0-.23,0h-90.82s0,90.82,0,90.82c0,25.08,20.33,45.41,45.41,45.41s45.41-20.33,45.41-45.41h.23c25.08,0,45.41-20.33,45.41-45.41Z"/>
      <path class="cls-1" d="M63.96,155.37c0,25.22,20.44,45.66,45.66,45.66.08,0,.15,0,.23,0h91.32s0-91.31,0-91.31c0-25.22-20.44-45.66-45.66-45.66-25.22,0-45.66,20.44-45.66,45.66h-.23c-25.22,0-45.66,20.44-45.66,45.66Z"/>
      <path class="cls-1" d="M64.2,304.78c0-25.17,20.41-45.58,45.58-45.58.08,0,.15,0,.23,0h91.16s0,91.16,0,91.16c0,25.17-20.41,45.58-45.58,45.58s-45.58-20.41-45.58-45.58h-.23c-25.17,0-45.58-20.41-45.58-45.58Z"/>
    </g>
  </g>
</svg>