<svg xmlns="http://www.w3.org/2000/svg" version="1.0" viewBox="0 0 50 86">
  <path d="M23.8 17.7c-2 17.9-2.4 19.5-4.7 19.1-1.9-.4-3.8-9.8-4-19.7-.1-3.5-.3-6.2-.5-6-.3.3-1 4.5-1.6 9.4-1.6 12.8-2.9 18.3-4.6 18.9-1.9.7-3.1-2.5-4.6-12.3l-1.2-7.6-.7 8C1.5 31.9.9 37.6.6 40.1c-.5 4.6-.4 4.7 3.3 6.4 5.2 2.3 12.4 9.8 15.6 16.4 1.5 2.9 3.5 9.2 4.4 13.9l1.8 8.5.6-6c1.4-13.3 7.8-24.5 17.5-30.8l6.2-4-.6-10c-.8-13-1.9-15.9-2.7-7.4-.7 7-2.4 12.9-3.8 12.9-.4 0-1.2-.8-1.8-1.8-1.1-2-4.1-19.1-4.2-24.1-.1-2-.7 1.3-1.4 7.3-1.8 14.2-2.2 15.8-4.2 15.4-2.2-.4-3-4.6-4.6-21.8L25.5 1.6l-1.7 16.1z"/>
</svg>