<svg xmlns="http://www.w3.org/2000/svg" fill="none" viewBox="0 0 48 48">
  <path fill="#CD412B" d="M48 0H0v48h48V0Z"/>
  <path fill="#1E2020" d="M15.721 21.642 5.52 19.969v10.169l10.202-1.673v-6.823ZM20.839 21.642h-3.412v6.79h3.412v-6.79ZM28.465 15.721 30.138 5.52H19.969l1.672 10.202h6.824ZM28.432 17.427h-6.79v3.412h6.79v-3.412ZM25.053 22.642l-2.413 2.412 2.413 2.413 2.412-2.413-2.412-2.412ZM29.269 34.052l5.987 8.429 7.225-7.225-8.43-5.988-4.782 4.784ZM30.455 25.662l-4.801 4.801 2.412 2.413 4.802-4.802-2.413-2.412Z"/>
</svg>