<svg xmlns="http://www.w3.org/2000/svg" viewBox="0 0 474 474"><path fill="currentColor" d="M220 .9c0 .4-3.9 1.1-8.7 1.5-30.7 2.3-74.7 17.7-100.3 34.9l-5.1 3.5 12.8 13.8c7 7.7 13.9 15.2 15.3 16.7l2.6 2.8 12.4-6.4c19-9.7 40-16.6 60.5-19.9 12.1-1.9 46.7-1.6 58.5.6 21.8 4 38.6 9.7 57.5 19.4 6 3.2 11.2 5.8 11.6 6 .6.3 30.1-31.2 30.7-32.8.6-1.7-22.2-14.5-36.8-20.8C307.2 10.2 274.8 2 258.5 2c-2.5 0-4.5-.5-4.5-1 0-.6-6.3-1-17-1-9.3 0-17 .4-17 .9M22 22.5c0 1.5 15.1 69.1 15.8 70.7.7 1.7 80 74.8 81.1 74.8.3 0 2.8-3.4 5.5-7.6 9-13.8 25.5-29.6 39-37.4l5.7-3.2-8.8-9.6c-4.8-5.4-11.1-12.2-13.9-15.2s-10.9-11.8-18-19.5-17.8-19.3-23.7-25.7c-8.6-9.3-11.7-12-14.5-12.7-2.1-.5-17.4-3.9-34.2-7.5-16.8-3.7-31.3-6.9-32.2-7.2-1-.3-1.8-.2-1.8.1m400.5 6.1c-15.4 3.5-31.2 7-35.1 7.9l-7.2 1.6-9.3 10.2c-5.2 5.7-21.9 23.9-37.1 40.5-15.3 16.5-27.8 30.5-27.8 31 0 .4 1.5 1.5 3.3 2.4 11.2 5.3 30.8 24 40.5 38.5l5.4 8.2 18.7-17.2c10.2-9.4 28.6-26.3 40.9-37.5C427 103 437 93.5 437 93.3c0-.3 3.4-15.8 7.5-34.4 7.6-34.4 8.1-37 6.8-36.8-.5.1-13.4 3-28.8 6.5M36.3 112.2C24 131.7 13.3 156.9 7.4 180 5.1 189.2 2 207.5 2 212.1c0 2.2-.4 3.9-1 3.9s-1 7.7-1 21 .4 21 1 21 1 1.7 1 3.7c0 6 2.8 21.8 6 34.1 4.2 16.3 9.3 29.7 16.8 45.1 6.1 12.5 20.5 35.5 25.5 40.9l2.1 2.3 8.3-8.3 8.3-8.3-14.7-14.8-14.8-14.8L42 336c4.8-3.7 11.7-7 17.9-8.4 3.5-.8 6.5-1.7 6.8-2 .3-.2-1.4-4.6-3.7-9.8-12.8-28.1-17.6-52.9-16.7-84.8.9-30 6.7-52.9 20.4-79.9 4-8 7.1-14.5 7-14.6s-6.5-5.9-14.2-13-15.2-13.9-16.6-15.2l-2.6-2.4zm382.7 7.4c-7.4 6.9-14.6 13.6-15.9 14.9l-2.4 2.3 7.2 14.4c12 24 18.2 46.7 20.1 72.9 1 14.4.2 32.3-2.1 45.4-2.6 15.1-9.8 37.4-16 49.6-1.7 3.4-2.8 6.3-2.6 6.6.3.2 3.3 1.1 6.6 1.9 6.8 1.5 12.8 4.3 18 8.1l3.3 2.6-14.8 14.8-14.9 14.9 8.3 8.3 8.3 8.2 2-2.5c5.8-7.3 19.4-28.9 24.3-38.5 11.1-22.3 19.2-47.3 22.4-69 .9-6.6 2-12.2 2.4-12.3 1.1-.5 1-50.2-.1-50.2-.4 0-1.1-3-1.5-6.7-1.6-15.5-8-39.4-15.4-58-5.7-14-20.4-40.3-22.5-40.2-.7 0-7.3 5.6-14.7 12.5"/><path fill="currentColor" d="M213.6 115.6c-44.4 8-81.6 40.7-95 83.4-2.8 8.6-5.6 24.5-5.6 31.2v3.8l23.2.2 23.1.3 4.6 15.2c2.6 8.3 4.9 15.5 5.3 15.8.3.4 2.7-5.8 5.2-13.7 4.8-14.7 31.2-95.2 32.1-97.7.3-.8.7-1.2 1-1 .3.4 12.9 42.7 17.9 60.6 1.4 5 3 10.3 3.6 11.7l.9 2.6 8.8-6.1c4.7-3.4 9.2-6.3 9.9-6.6.9-.3 2.7 4.2 6 14.4 2.5 8.1 5.5 17.5 6.5 20.7 1 3.3 1.9 6.5 1.9 7.3 0 .7.4 1.3.8 1.3.5 0 5.7-5 11.7-11.1 5.9-6 11.1-10.7 11.6-10.2.4.4 3.1 8.8 6 18.6s5.5 17.3 5.9 16.5c.4-.7 3.6-9.7 7.1-20l6.4-18.8h48.8l-.6-9.3c-3.5-53-46.7-99.7-101.1-109.2-11.1-1.9-35.1-1.9-46 .1"/><path fill="currentColor" d="M189.1 249.7c-9.4 29.1-17.8 54.1-18.5 55.8-1.3 2.9-1.7 1.9-10.8-25.5l-9.4-28.5-18.3-.3-18.3-.2.7 5.2c2.2 16.4 9.4 36 18.5 50 5.8 9.2 19.7 23.9 28.9 30.7 29.2 21.7 70.9 29.2 108.5 19.6 37.8-9.6 67.8-35.7 81.7-71.5 4-10.1 7.9-25.5 7.9-31.3V251l-19.6.2-19.6.3-11.6 32.2c-6.5 17.8-12 32.3-12.3 32.3s-2.2-6.2-4.4-13.8c-6.4-23.1-11.4-40.5-11.8-40.9-.4-.3-13.7 13-19.4 19.6l-3 3.5-1.6-5.5c-7.5-25.4-13.7-43.4-14.8-43.1-.7.2-5.2 3.2-10.1 6.8-7.7 5.6-8.8 6.2-9.6 4.6-.5-.9-3.9-12.3-7.7-25.2-3.7-12.9-7.1-23.8-7.4-24.3-.4-.4-8.5 23-18 52m-75.6 71.5c-6 6.5-11.8 12.9-12.7 14.2-1.7 2.2-1.5 2.4 17.1 21l18.8 18.8 13.5-12.3c7.3-6.8 13.6-12.9 13.8-13.4.2-.6-2.3-2.8-5.6-5-7.8-5.3-24-21.4-29.3-29.3-2.3-3.4-4.3-6.2-4.4-6.1-.1 0-5.1 5.5-11.2 12.1m230.5-4.6c-6.9 9.8-18 20.8-27 27-3.9 2.6-7 5.1-7 5.5 0 .6 10.1 10.1 25.3 23.8l2.8 2.5 18.4-18.4c10.2-10.2 18.5-18.9 18.5-19.4s-3.9-5.1-8.7-10.4c-4.9-5.2-10.6-11.5-12.8-13.9l-4-4.4zM66.2 333.2c-6.9.9-15.4 3.8-15.9 5.3-.2.6 6 7.3 13.7 15l14 14-30.7 30.7-30.7 30.7L30.7 443l14.2 14.1 30.8-30.5 30.8-30.5 14.3 14.2c13.7 13.6 14.4 14.1 15.8 12.2 2.1-2.8 4.2-10.7 4.9-18.5l.6-6.5-32.3-32.1C89 344.6 76.6 333.1 75 332.8c-1.4-.3-5.3-.1-8.8.4m298.6 31.5L333 396.5v6.2c0 5.7 2.7 16.9 5 20.3.8 1.2 3.8-1.3 15.5-13l14.5-14.5 30.8 30.8 30.7 30.7 14-14 14-14-30.3-30.3c-16.6-16.6-30.2-30.6-30.2-31.1s6.4-7.2 14.1-14.8c7.8-7.7 14-14.1 13.7-14.3-.2-.2-2.6-1.4-5.3-2.6-3.5-1.5-7.8-2.3-14-2.6l-9-.5z"/><path fill="currentColor" d="m98.1 413.4-8.4 8.4 7.4 5.5c18.8 13.8 39.7 25 61.4 32.7 16.8 5.9 44.7 12 55.3 12 2.3 0 4.2.4 4.2 1s7.2 1 19.5 1c10.7 0 19.5-.4 19.5-.9 0-.4 3.4-1.1 7.6-1.4 30.5-2.6 73.5-18 100.4-35.9 11.2-7.5 18.9-13.1 18.9-13.8.1-.8-1.2-2.2-8.7-9.5l-7.2-7-14.3 14.3c-7.8 7.8-14.7 14.2-15.2 14.2-3.1 0-11.5-17.9-11.5-24.6 0-1.3-.4-2.4-.9-2.4s-5.3 2-10.7 4.4c-39.6 17.4-82.4 21.3-124 11.2-11.3-2.8-27.8-8.7-37-13.4l-6.2-3.1-1.1 5.7c-1.2 6.2-5.8 16.3-9.1 20.1l-2.1 2.5-14.7-14.7-14.7-14.7z"/></svg>